<svg xmlns="http://www.w3.org/2000/svg" viewBox="0 0 800 420">
  <defs>
    <linearGradient id="bgGradSPD" x1="0%" y1="0%" x2="100%" y2="100%">
      <stop offset="0%" style="stop-color:#1a1a2e;stop-opacity:1" />
      <stop offset="100%" style="stop-color:#16213e;stop-opacity:1" />
    </linearGradient>
  </defs>

  <!-- Background -->
  <rect width="800" height="420" fill="url(#bgGradSPD)"/>

  <!-- Title -->
  <text x="400" y="28" font-family="Arial, sans-serif" font-size="18" font-weight="bold" fill="#ffffff" text-anchor="middle">SYSTEM PERFORMANCE DASHBOARD</text>

  <!-- Model Routing panel -->
  <rect x="40" y="50" width="350" height="120" rx="8" fill="#2a1e3a" stroke="#9b59b6"/>
  <text x="60" y="75" font-family="Arial, sans-serif" font-size="11" font-weight="bold" fill="#9b59b6">🎯 MODEL ROUTING</text>

  <text x="60" y="100" font-family="Arial, sans-serif" font-size="9" fill="#888888">Fast tier</text>
  <rect x="140" y="88" width="100" height="14" rx="2" fill="#1a1a2e"/>
  <rect x="140" y="88" width="58" height="14" rx="2" fill="#2ecc71"/>
  <text x="250" y="100" font-family="monospace" font-size="9" fill="#2ecc71">58%</text>

  <text x="60" y="118" font-family="Arial, sans-serif" font-size="9" fill="#888888">Balanced tier</text>
  <rect x="140" y="106" width="100" height="14" rx="2" fill="#1a1a2e"/>
  <rect x="140" y="106" width="32" height="14" rx="2" fill="#f39c12"/>
  <text x="250" y="118" font-family="monospace" font-size="9" fill="#f39c12">32%</text>

  <text x="60" y="136" font-family="Arial, sans-serif" font-size="9" fill="#888888">Powerful tier</text>
  <rect x="140" y="124" width="100" height="14" rx="2" fill="#1a1a2e"/>
  <rect x="140" y="124" width="10" height="14" rx="2" fill="#e74c3c"/>
  <text x="250" y="136" font-family="monospace" font-size="9" fill="#e74c3c">10%</text>

  <text x="60" y="158" font-family="Arial, sans-serif" font-size="10" fill="#2ecc71">Cost savings : 68%</text>

  <!-- Parallel Execution panel -->
  <rect x="410" y="50" width="350" height="120" rx="8" fill="#3a3a1e" stroke="#f39c12"/>
  <text x="430" y="75" font-family="Arial, sans-serif" font-size="11" font-weight="bold" fill="#f39c12">⚡ PARALLEL EXECUTION</text>

  <text x="430" y="100" font-family="Arial, sans-serif" font-size="9" fill="#cccccc">Avg Speedup  : 3.8x</text>
  <text x="430" y="118" font-family="Arial, sans-serif" font-size="9" fill="#cccccc">Parallelized : 78%</text>
  <text x="430" y="136" font-family="Arial, sans-serif" font-size="9" fill="#cccccc">Levels avg   : 2.3</text>
  <text x="430" y="158" font-family="Arial, sans-serif" font-size="10" fill="#2ecc71">Time saved   : 45s/session</text>

  <!-- Lazy Loading panel -->
  <rect x="40" y="185" width="350" height="100" rx="8" fill="#1e3a3a" stroke="#2ecc71"/>
  <text x="60" y="210" font-family="Arial, sans-serif" font-size="11" font-weight="bold" fill="#2ecc71">🚀 LAZY LOADING</text>

  <text x="60" y="235" font-family="Arial, sans-serif" font-size="9" fill="#cccccc">Startup time  : 37ms</text>
  <text x="60" y="253" font-family="Arial, sans-serif" font-size="9" fill="#cccccc">Memory saved  : 197 MB</text>
  <text x="60" y="271" font-family="Arial, sans-serif" font-size="9" fill="#cccccc">Modules loaded: 12/47</text>

  <!-- Latency panel -->
  <rect x="410" y="185" width="350" height="100" rx="8" fill="#1e2a3a" stroke="#3498db"/>
  <text x="430" y="210" font-family="Arial, sans-serif" font-size="11" font-weight="bold" fill="#3498db">⏱️ LATENCY</text>

  <text x="430" y="235" font-family="Arial, sans-serif" font-size="9" fill="#cccccc">P50 : 280ms ✅</text>
  <text x="430" y="253" font-family="Arial, sans-serif" font-size="9" fill="#cccccc">P95 : 890ms ✅</text>
  <text x="430" y="271" font-family="Arial, sans-serif" font-size="9" fill="#cccccc">P99 : 1.8s  ✅</text>

  <!-- Cost Summary panel -->
  <rect x="40" y="300" width="720" height="105" rx="8" fill="#2d2d44" stroke="#f39c12"/>
  <text x="60" y="325" font-family="Arial, sans-serif" font-size="11" font-weight="bold" fill="#f39c12">💰 COST SUMMARY (this session)</text>

  <!-- Without optimizations -->
  <text x="60" y="355" font-family="Arial, sans-serif" font-size="9" fill="#e74c3c">Without optimizations</text>
  <rect x="210" y="343" width="400" height="18" rx="3" fill="#3a1e2a"/>
  <text x="625" y="357" font-family="monospace" font-size="10" fill="#e74c3c">$2.50</text>

  <!-- With optimizations -->
  <text x="60" y="383" font-family="Arial, sans-serif" font-size="9" fill="#2ecc71">With optimizations</text>
  <rect x="210" y="371" width="400" height="18" rx="3" fill="#1a1a2e"/>
  <rect x="210" y="371" width="120" height="18" rx="3" fill="#2ecc71"/>
  <text x="625" y="385" font-family="monospace" font-size="10" fill="#2ecc71">$0.75</text>

  <!-- Savings box -->
  <rect x="660" y="343" width="85" height="56" rx="4" fill="#1e3a3a"/>
  <text x="702" y="365" font-family="Arial, sans-serif" font-size="9" fill="#f39c12" text-anchor="middle">💵 Savings</text>
  <text x="702" y="388" font-family="Arial, sans-serif" font-size="14" font-weight="bold" fill="#2ecc71" text-anchor="middle">70%</text>
</svg>
